<svg width="136" height="32" viewBox="0 0 136 32" fill="none" xmlns="http://www.w3.org/2000/svg">
<g clip-path="url(#clip0_1_429)">
<path d="M39.0002 9.90005H42.4199V23.7674H39.0002V9.90005ZM43.7835 18.5512C43.7835 15.1163 45.9141 13.0575 49.11 13.0575C52.306 13.0575 54.4366 15.1163 54.4366 18.5512C54.4366 21.9859 52.3805 24.0661 49.11 24.0661C45.8395 24.0661 43.7835 22.0606 43.7835 18.5512ZM51.0489 18.5512C51.0489 16.6631 50.3138 15.5537 49.142 15.5537C47.9701 15.5537 47.2457 16.6204 47.2457 18.5512C47.2457 20.4819 47.9701 21.5379 49.142 21.5379C50.3138 21.5379 51.0702 20.4819 51.0702 18.5618L51.0489 18.5512ZM55.8002 24.4821H59.1026C59.253 24.8382 59.5156 25.1351 59.8503 25.3277C60.1849 25.5203 60.5735 25.598 60.9564 25.5488C62.2667 25.5488 62.9484 24.8448 62.9484 23.7994V21.8793H62.9591C62.6769 22.4772 62.2206 22.9755 61.6501 23.3087C61.0797 23.6419 60.4218 23.7944 59.7632 23.746C57.2597 23.746 55.5978 21.8366 55.5978 18.5512C55.5978 15.2656 57.1851 13.2175 59.859 13.2175C60.5346 13.1813 61.2047 13.3558 61.7771 13.7169C62.3494 14.078 62.7959 14.6079 63.0549 15.2336H62.9591V13.3029H66.3468V23.6927C66.3468 26.1995 64.1309 27.7676 60.8711 27.7676C57.9095 27.7569 56.0133 26.4022 55.8215 24.4928L55.8002 24.4821ZM62.9591 18.5512C62.9591 16.8764 62.1921 15.8203 60.9776 15.8203C59.7632 15.8203 59.0174 16.8871 59.0174 18.5512C59.0174 20.2152 59.7525 21.1966 60.9776 21.1966C62.2028 21.1966 62.9591 20.2899 62.9591 18.5512ZM67.6998 18.5512C67.6998 15.1163 69.8304 13.0575 73.0263 13.0575C76.2223 13.0575 78.3529 15.1163 78.3529 18.5512C78.3529 21.9859 76.2862 24.0661 73.0263 24.0661C69.7665 24.0661 67.721 22.0606 67.721 18.5512H67.6998ZM74.9652 18.5512C74.9652 16.6631 74.2195 15.5537 73.0583 15.5537C71.897 15.5537 71.162 16.6204 71.162 18.5512C71.162 20.4819 71.8864 21.5379 73.0583 21.5379C74.2301 21.5379 74.9865 20.4819 74.9865 18.5618L74.9652 18.5512ZM79.7378 10.7747C79.7229 10.4259 79.8126 10.0807 79.9953 9.78333C80.178 9.48599 80.4454 9.2502 80.763 9.10628C81.0807 8.96237 81.434 8.91689 81.7777 8.97567C82.1214 9.03453 82.4396 9.19495 82.6915 9.43639C82.9434 9.67782 83.1173 9.98914 83.1909 10.3304C83.2646 10.6716 83.2347 11.0271 83.1049 11.3512C82.9752 11.6752 82.7515 11.9529 82.4628 12.1487C82.1741 12.3444 81.8335 12.4492 81.4849 12.4495C81.2621 12.4552 81.0404 12.4165 80.8326 12.3357C80.6248 12.2548 80.4352 12.1335 80.2746 11.9787C80.1141 11.8238 79.9858 11.6387 79.8973 11.4339C79.8088 11.229 79.7618 11.0086 79.7591 10.7854L79.7378 10.7747ZM79.7378 13.2922H83.2001V23.81H79.791L79.7378 13.2922ZM95.6534 18.5512C95.6534 21.9753 94.1196 23.9594 91.5096 23.9594C90.8413 24.0007 90.1765 23.8356 89.6048 23.4865C89.033 23.1374 88.5831 22.6211 88.3136 22.0073H88.2498V27.1916H84.8296V13.3242H88.228V15.2016H88.2926C88.552 14.5758 88.9986 14.0453 89.5703 13.6826C90.142 13.3199 90.812 13.1427 91.4878 13.1749C94.1725 13.1535 95.7172 15.127 95.7172 18.5618L95.6534 18.5512ZM92.1703 18.5512C92.1703 16.8871 91.3921 15.8097 90.1882 15.8097C88.9844 15.8097 88.228 16.8764 88.2179 18.5512C88.207 20.2259 88.9844 21.2819 90.1882 21.2819C91.3921 21.2819 92.2341 20.2899 92.2341 18.5618L92.1703 18.5512ZM101.491 13.0468C104.357 13.0468 106.136 14.4016 106.157 16.5777H103.036C103.036 15.8203 102.408 15.351 101.47 15.351C100.533 15.351 100.085 15.7137 100.085 16.2577C100.085 16.8017 100.48 16.9724 101.268 17.1324L103.462 17.5804C105.593 18.0285 106.445 18.8819 106.445 20.4713C106.445 22.6046 104.474 24.0554 101.545 24.0554C98.6152 24.0554 96.7078 22.6473 96.5701 20.5033H99.8828C99.9785 21.2819 100.596 21.7406 101.598 21.7406C102.599 21.7406 103.068 21.4206 103.068 20.8552C103.068 20.2899 102.749 20.1939 101.928 20.0232L99.9466 19.6072C97.8907 19.1699 96.8144 18.0925 96.8144 16.4817C96.8791 14.3909 98.6681 13.0575 101.555 13.0575L101.491 13.0468ZM117.897 23.7994H114.584V21.8259H114.52C114.335 22.4842 113.931 23.0595 113.375 23.457C112.82 23.8546 112.145 24.0505 111.463 24.0127C110.948 24.0296 110.435 23.9371 109.959 23.7416C109.482 23.5459 109.052 23.2516 108.697 22.8779C108.342 22.5042 108.07 22.0595 107.898 21.5731C107.726 21.0866 107.66 20.5694 107.702 20.0552V13.3029H111.122V19.3192C111.122 20.5566 111.772 21.2286 112.837 21.2286C113.087 21.2267 113.333 21.1712 113.56 21.0657C113.787 20.9602 113.988 20.8073 114.151 20.6172C114.313 20.427 114.433 20.2043 114.503 19.9638C114.572 19.7233 114.588 19.4707 114.552 19.2232V13.3029H117.962L117.897 23.7994ZM119.548 13.2922H122.873V15.319H122.947C123.13 14.6697 123.524 14.0997 124.066 13.6983C124.607 13.2968 125.267 13.0865 125.94 13.1002C126.617 13.0414 127.291 13.2371 127.831 13.6495C128.371 14.0618 128.737 14.6609 128.859 15.3296H129.009C129.221 14.6574 129.65 14.0743 130.228 13.6711C130.806 13.2679 131.501 13.0672 132.205 13.1002C132.672 13.0824 133.138 13.1636 133.572 13.3387C134.006 13.5137 134.399 13.7785 134.723 14.1159C135.048 14.4532 135.298 14.8554 135.457 15.2963C135.616 15.737 135.68 16.2064 135.646 16.6737V23.81H132.205V17.5484C132.205 16.4817 131.703 15.8843 130.735 15.8843C130.519 15.8808 130.306 15.9239 130.109 16.0106C129.913 16.0973 129.737 16.2256 129.594 16.3867C129.451 16.5478 129.345 16.7379 129.282 16.9439C129.22 17.15 129.203 17.3671 129.232 17.5804V23.81H125.972V17.5164C125.972 16.4497 125.45 15.8843 124.513 15.8843C124.296 15.8826 124.081 15.9274 123.882 16.0158C123.684 16.1042 123.506 16.234 123.362 16.3967C123.218 16.5594 123.109 16.7511 123.046 16.9589C122.981 17.1667 122.963 17.3859 122.989 17.6018V23.81H119.57L119.548 13.2922Z" fill="#282938"/>
<path d="M32.2361 10.8062C32.2361 8.68306 31.5958 6.60945 30.399 4.85689C29.2022 3.10433 27.5048 1.75457 25.5289 0.984386C23.553 0.214209 21.3909 0.0595329 19.3258 0.540615C17.2606 1.0217 15.3888 2.11611 13.9552 3.6805H0.660156V31.7779H28.7311V18.6466C29.8329 17.6598 30.7145 16.4516 31.3185 15.1006C31.9223 13.7496 32.235 12.2863 32.2361 10.8062ZM26.8349 10.8062C26.837 11.8235 26.5377 12.8186 25.9747 13.6656C25.4118 14.5125 24.6106 15.1732 23.6725 15.564C22.7344 15.9548 21.7016 16.0581 20.7048 15.8609C19.7081 15.6638 18.7922 15.1749 18.073 14.4563C17.3538 13.7376 16.8637 12.8215 16.6647 11.8239C16.4658 10.8262 16.5668 9.79186 16.9551 8.85174C17.3435 7.91159 18.0016 7.10796 18.8463 6.54252C19.6909 5.97708 20.684 5.67527 21.7001 5.67526C23.0601 5.67526 24.3645 6.21549 25.3272 7.17742C26.2898 8.13935 26.8321 9.44441 26.8349 10.8062ZM23.33 26.3696H6.06129V9.08879H11.324C11.2223 9.65569 11.1688 10.2302 11.1641 10.8062C11.167 13.6033 12.2779 16.2851 14.2532 18.2629C16.2284 20.2408 18.9066 21.3532 21.7001 21.3561C22.2462 21.3531 22.7912 21.3068 23.33 21.2174V26.3696Z" fill="#282938"/>
</g>
<defs>
<clipPath id="clip0_1_429">
<rect width="136" height="32" fill="white"/>
</clipPath>
</defs>
</svg>
